<?xml version="1.0" encoding="UTF-8"?>
<svg id="Layer_1" xmlns="http://www.w3.org/2000/svg" version="1.1" viewBox="0 0 792 180.54">
  <!-- Generator: Adobe Illustrator 30.0.0, SVG Export Plug-In . SVG Version: 2.1.1 Build 123)  -->
  <defs>
    <style>
      .st0 {
        fill: #231f20;
      }
    </style>
  </defs>
  <g>
    <polygon class="st0" points="90.22 104.21 84.99 95.16 73.99 95.2 79.19 104.21 68.12 104.21 62.9 95.16 51.89 95.2 57.09 104.21 46.27 104.21 41.04 95.16 30.04 95.2 61.56 149.8 61.58 149.79 69.74 163.94 88.07 163.94 122.55 104.21 90.22 104.21"/>
    <polygon class="st0" points="134.03 163.94 154.75 163.94 186.57 108.88 197.3 90.27 176.59 90.27 165.85 108.88 134.03 163.94"/>
    <polygon class="st0" points="134.03 16.6 154.75 16.6 186.57 71.66 197.3 90.27 176.59 90.27 165.85 71.66 134.03 16.6"/>
    <polygon class="st0" points="103.18 16.6 123.89 16.6 155.72 71.66 166.45 90.27 145.73 90.27 135 71.66 103.18 16.6"/>
    <polygon class="st0" points="103.18 163.94 123.89 163.94 155.72 108.88 166.45 90.27 145.73 90.27 135 108.88 103.18 163.94"/>
    <polygon class="st0" points="90.42 16.6 69.71 16.6 37.88 71.66 29.97 85.38 50.68 85.38 58.6 71.66 90.42 16.6"/>
    <polygon class="st0" points="72.53 16.6 93.25 16.6 125.07 71.66 135.8 90.27 115.09 90.27 104.36 71.66 72.53 16.6"/>
    <polygon class="st0" points="72.53 163.94 93.25 163.94 125.07 108.88 135.8 90.27 115.09 90.27 104.36 108.88 72.53 163.94"/>
  </g>
  <g>
    <path class="st0" d="M222.5,60.18c0-.67.33-1.01,1-1.01h43.57c.66,0,1,.34,1,1.01v10.69c0,.66-.33,1-1,1h-29.28c-.4,0-.6.2-.6.59v13.5c0,.39.2.59.6.59h24.39c.66,0,1,.34,1,1.01v10.59c0,.67-.33,1-1,1h-24.39c-.4,0-.6.21-.6.6v14.09c0,.41.2.6.6.6h29.28c.66,0,1,.33,1,1v10.69c0,.67-.33,1-1,1h-43.57c-.67,0-1-.33-1-1V60.18Z"/>
    <path class="st0" d="M328.03,132.03c-.2.2-.44.32-.7.35-.27.03-.54-.09-.8-.35l-6.9-6.89c-4.13,2.06-8.73,3.09-13.79,3.09-5.93,0-11.11-1.36-15.54-4.1-4.43-2.73-7.51-6.86-9.24-12.38-.4-1.21-.72-2.37-.95-3.51-.24-1.13-.42-2.4-.55-3.79-.13-1.4-.24-3-.3-4.8-.07-1.8-.1-3.97-.1-6.5s.03-4.69.1-6.5c.06-1.8.16-3.4.3-4.79.13-1.4.32-2.66.55-3.8.23-1.13.55-2.3.95-3.5,1.73-5.47,4.81-9.58,9.24-12.34,4.43-2.77,9.61-4.15,15.54-4.15s11.18,1.37,15.54,4.1c4.36,2.73,7.44,6.86,9.24,12.39.4,1.19.71,2.37.95,3.5.23,1.14.42,2.4.55,3.8.14,1.39.24,2.99.3,4.79.07,1.81.1,3.97.1,6.5s-.03,4.7-.1,6.5c-.07,1.8-.16,3.4-.3,4.8-.13,1.39-.32,2.66-.55,3.79-.24,1.14-.55,2.3-.95,3.51-.27.73-.54,1.42-.8,2.09-.27.67-.57,1.34-.9,1.99l7.1,7c.47.46.47.93,0,1.4l-7.99,7.79ZM305.84,115.34c1.4,0,2.6-.13,3.6-.41l-4.3-4.3c-.47-.46-.47-.93,0-1.39l7.99-7.6c.53-.46,1.03-.46,1.5,0l2.7,2.71c.13-1.14.23-2.59.3-4.35.07-1.76.1-4.04.1-6.85,0-2.19-.02-4.1-.05-5.7-.04-1.6-.1-2.96-.2-4.1-.1-1.13-.21-2.07-.35-2.84-.13-.77-.3-1.46-.5-2.05-.73-2.33-2.02-4.16-3.85-5.5-1.84-1.34-4.15-1.99-6.95-1.99s-5.11.66-6.94,1.99c-1.84,1.34-3.12,3.17-3.85,5.5-.2.59-.37,1.28-.5,2.05-.13.77-.25,1.71-.35,2.84-.1,1.14-.16,2.5-.2,4.1s-.05,3.51-.05,5.7.02,4.1.05,5.7.1,2.97.2,4.1c.1,1.13.22,2.08.35,2.85s.3,1.45.5,2.05c.73,2.33,2.02,4.16,3.85,5.49,1.83,1.34,4.15,2.01,6.94,2.01Z"/>
    <path class="st0" d="M371.49,128.23c-3.8,0-7.29-.56-10.49-1.7-3.19-1.13-5.94-2.79-8.25-5-2.3-2.19-4.09-4.93-5.39-8.2-1.3-3.25-1.95-6.99-1.95-11.19v-41.97c0-.67.33-1.01,1-1.01h12.69c.66,0,1,.34,1,1.01v42.37c0,4.05,1.03,7.19,3.1,9.39,2.06,2.19,4.83,3.3,8.29,3.3s6.13-1.11,8.2-3.3c2.07-2.2,3.1-5.34,3.1-9.39v-42.37c0-.67.33-1.01,1-1.01h12.69c.67,0,1,.34,1,1.01v41.97c0,4.2-.65,7.93-1.95,11.19-1.3,3.27-3.1,6-5.4,8.2-2.3,2.2-5.03,3.87-8.19,5-3.17,1.14-6.65,1.7-10.45,1.7Z"/>
    <path class="st0" d="M412.17,60.18c0-.67.33-1.01,1-1.01h12.69c.67,0,1,.34,1,1.01v65.95c0,.67-.33,1-1,1h-12.69c-.67,0-1-.33-1-1V60.18Z"/>
    <path class="st0" d="M442.85,127.13c-.67,0-1-.33-1-1V60.18c0-.67.33-1.01,1-1.01h26.38c3.67,0,6.96.54,9.89,1.6,2.93,1.07,5.43,2.58,7.5,4.5,2.07,1.93,3.63,4.23,4.7,6.89,1.07,2.66,1.6,5.63,1.6,8.9s-.55,6.13-1.65,8.79c-1.1,2.67-2.66,4.96-4.7,6.9-2.03,1.93-4.51,3.43-7.45,4.49-2.93,1.06-6.23,1.6-9.89,1.6h-12.09c-.4,0-.6.2-.6.6v22.68c0,.67-.33,1-1,1h-12.69ZM468.33,90.16c3.13,0,5.56-.82,7.3-2.45,1.73-1.63,2.6-3.85,2.6-6.64s-.87-5.03-2.6-6.7c-1.74-1.67-4.16-2.5-7.3-2.5h-11.19c-.4,0-.6.2-.6.59v17.09c0,.39.2.6.6.6h11.19Z"/>
    <path class="st0" d="M515.79,60.18c.2-.67.64-1.01,1.3-1.01h12.59c.66,0,1.1.34,1.3,1.01l22.98,65.95c.2.67-.03,1-.7,1h-12.99c-.66,0-1.1-.33-1.3-1l-3.9-11.89h-23.78l-3.8,11.89c-.2.67-.64,1-1.3,1h-13.09c-.67,0-.9-.33-.7-1l23.38-65.95ZM531.09,101.76l-7.69-23.79h-.3l-7.69,23.79h15.69Z"/>
    <path class="st0" d="M572.46,127.13c-.67,0-1-.33-1-1v-53.27c0-.41-.2-.6-.6-.6h-17.19c-.66,0-1-.33-1-1v-11.09c0-.67.33-1.01,1-1.01h50.27c.66,0,1,.34,1,1.01v11.09c0,.67-.33,1-1,1h-17.19c-.4,0-.6.2-.6.6v53.27c0,.67-.33,1-1,1h-12.69Z"/>
    <path class="st0" d="M615.13,60.18c0-.67.33-1.01,1-1.01h12.69c.67,0,1,.34,1,1.01v65.95c0,.67-.33,1-1,1h-12.69c-.67,0-1-.33-1-1V60.18Z"/>
    <path class="st0" d="M669.69,128.23c-5.93,0-11.11-1.36-15.54-4.1-4.43-2.73-7.51-6.86-9.24-12.38-.4-1.21-.72-2.37-.95-3.51-.24-1.13-.42-2.4-.55-3.79-.13-1.4-.24-3-.3-4.8-.07-1.8-.1-3.97-.1-6.5s.03-4.69.1-6.5c.06-1.8.16-3.4.3-4.79.13-1.4.32-2.66.55-3.8.23-1.13.55-2.3.95-3.5,1.73-5.47,4.81-9.58,9.24-12.34,4.43-2.77,9.61-4.15,15.54-4.15s11.11,1.38,15.54,4.15c4.43,2.76,7.51,6.87,9.24,12.34.4,1.19.71,2.37.95,3.5.23,1.14.42,2.4.55,3.8.14,1.39.24,2.99.3,4.79.07,1.81.1,3.97.1,6.5s-.03,4.7-.1,6.5c-.07,1.8-.16,3.4-.3,4.8-.13,1.39-.32,2.66-.55,3.79-.24,1.14-.55,2.3-.95,3.51-1.74,5.52-4.82,9.65-9.24,12.38-4.43,2.74-9.62,4.1-15.54,4.1ZM669.69,115.24c2.8,0,5.1-.67,6.9-2.01,1.8-1.33,3.06-3.16,3.8-5.49.2-.6.37-1.28.5-2.05.13-.77.25-1.7.35-2.81.1-1.1.16-2.44.2-4.04.03-1.6.05-3.5.05-5.7s-.02-4.1-.05-5.7c-.03-1.6-.1-2.95-.2-4.04-.1-1.1-.22-2.03-.35-2.79-.13-.77-.3-1.46-.5-2.05-.73-2.33-2-4.16-3.8-5.5-1.8-1.33-4.1-1.99-6.9-1.99s-5.1.67-6.89,1.99c-1.8,1.34-3.07,3.17-3.8,5.5-.2.59-.37,1.28-.5,2.05-.13.77-.25,1.7-.35,2.79-.1,1.1-.17,2.44-.2,4.04-.03,1.6-.05,3.51-.05,5.7s.02,4.1.05,5.7c.03,1.6.1,2.95.2,4.04.1,1.11.21,2.04.35,2.81.14.77.3,1.45.5,2.05.73,2.33,1.99,4.16,3.8,5.49,1.8,1.34,4.1,2.01,6.89,2.01Z"/>
    <path class="st0" d="M709.57,60.18c0-.67.33-1.01,1-1.01h11.99c.73,0,1.3.34,1.7,1.01l23.98,42.77h.5v-42.77c0-.67.33-1.01,1-1.01h11.29c.66,0,1,.34,1,1.01v65.95c0,.67-.33,1-1,1h-11.89c-.73,0-1.3-.33-1.7-1l-24.08-42.67h-.5v42.67c0,.67-.33,1-1,1h-11.29c-.67,0-1-.33-1-1V60.18Z"/>
  </g>
</svg>