<svg xmlns="http://www.w3.org/2000/svg" viewBox="0 0 1600 900" role="img" aria-labelledby="title desc">
  <title id="title">لوحة تشغيل تحليلية</title>
  <desc id="desc">واجهة تحليل بيانات المشاريع والمعدات.</desc>
  <defs>
    <linearGradient id="bg" x1="0" y1="0" x2="1" y2="1">
      <stop offset="0%" stop-color="#0d1f35"/>
      <stop offset="100%" stop-color="#1f3e60"/>
    </linearGradient>
    <linearGradient id="card" x1="0" y1="0" x2="0" y2="1">
      <stop offset="0%" stop-color="#ffffff"/>
      <stop offset="100%" stop-color="#eef3fb"/>
    </linearGradient>
    <linearGradient id="gold" x1="0" y1="0" x2="1" y2="1">
      <stop offset="0%" stop-color="#f7c84a"/>
      <stop offset="100%" stop-color="#cc9418"/>
    </linearGradient>
  </defs>
  <rect width="1600" height="900" fill="url(#bg)"/>
  <rect x="150" y="120" width="1300" height="660" rx="28" fill="#113152" opacity="0.7"/>
  <rect x="200" y="160" width="1200" height="580" rx="22" fill="url(#card)"/>
  <rect x="250" y="220" width="250" height="150" rx="16" fill="#e8eef9"/>
  <rect x="530" y="220" width="250" height="150" rx="16" fill="#e8eef9"/>
  <rect x="810" y="220" width="250" height="150" rx="16" fill="#e8eef9"/>
  <rect x="1090" y="220" width="250" height="150" rx="16" fill="#e8eef9"/>
  <path d="M260 620 L260 500 L350 530 L430 430 L520 480 L600 360 L690 420 L760 320" fill="none" stroke="#1d4a78" stroke-width="14" stroke-linecap="round" stroke-linejoin="round"/>
  <path d="M260 620 L260 540 L350 570 L430 470 L520 520 L600 400 L690 460 L760 370" fill="none" stroke="url(#gold)" stroke-width="14" stroke-linecap="round" stroke-linejoin="round"/>
  <rect x="860" y="430" width="460" height="240" rx="18" fill="#f3f7fd"/>
  <rect x="900" y="470" width="120" height="160" rx="12" fill="#1e436b"/>
  <rect x="1040" y="520" width="120" height="110" rx="12" fill="#315980"/>
  <rect x="1180" y="490" width="120" height="140" rx="12" fill="url(#gold)"/>
  <circle cx="1240" cy="290" r="40" fill="url(#gold)" opacity="0.9"/>
</svg>
